PathFileType	4	(X/Y/Z)	53_2_90_p0_0-188.trc
DataRate	CameraRate	NumFrames	NumMarkers	Units	OrigDataRate	OrigDataStartFrame	OrigNumFrames
59.0	59.0	7	27	m	59.0	94	189
Frame#	Time	RHip			RKnee			RAnkle			RBigToe			RSmallToe			RHeel			LHip			LKnee			LAnkle			LBigToe			LSmallToe			LHeel			Neck			Head			Nose			RShoulder			RElbow			RWrist			RThumb			RIndex			RPinky			LShoulder			LElbow			LWrist			LThumb			LIndex			LPinky			
		X1	Y1	Z1	X2	Y2	Z2	X3	Y3	Z3	X4	Y4	Z4	X5	Y5	Z5	X6	Y6	Z6	X7	Y7	Z7	X8	Y8	Z8	X9	Y9	Z9	X10	Y10	Z10	X11	Y11	Z11	X12	Y12	Z12	X13	Y13	Z13	X14	Y14	Z14	X15	Y15	Z15	X16	Y16	Z16	X17	Y17	Z17	X18	Y18	Z18	X19	Y19	Z19	X20	Y20	Z20	X21	Y21	Z21	X22	Y22	Z22	X23	Y23	Z23	X24	Y24	Z24	X25	Y25	Z25	X26	Y26	Z26	X27	Y27	Z27	
94	1.5932203389830508	0.41875613849150156	0.5963944180958266	0.6137784970832793	0.3900081761135773	0.77262501725789	1.0978967177133574	0.3764612432148023	0.8877597517877954	1.5182200190895963	0.2961229523282234	0.6788657585156775	1.5444961452805963	0.3639060055046144	0.6904853331780438	1.5500761726056238	0.35780884930208773	0.984227479469711	1.5710723340574444	0.22148657075501946	0.6054702921892963	0.6290091755005229	0.21656424979975591	0.7195181111155257	1.0645062082003838	0.181104061851893	0.876529958009064	1.5020683774092405	0.1798376940364313	0.696266163877467	1.532605668770666	0.12003362286133576	0.7405127399417945	1.5344591655451314	0.18729354504688636	0.9510117773811088	1.565826041488207	0.29094100824683566	0.4057878221294349	0.12446947592616588	0.2542091453407284	0.2750518341858347	-0.118566845342908	0.2565079226527845	0.21306919542547353	0.04232312722023071	0.46154120684079963	0.4114885778339374	0.1872355364385872	0.4845438078704562	0.47795287093279953	0.44629431981488143	0.37156908760193813	0.4894235116920778	0.678757061014595	0.2785050930672074	0.4535790389633524	0.7590701467763116	0.2821157749359144	0.4813092554273692	0.7850958089677826	0.313978627453584	0.5060300009412868	0.803050082943263	0.14492299901810107	0.4889579416755211	0.19384374521819728	0.14669756497573114	0.5344875039242607	0.43871790702581454	0.2442619046197893	0.472446547719267	0.6557986684835332	0.2979454677875845	0.4027027231621034	0.7249205145946921	0.3078635503941929	0.4135118653466301	0.7629074351393887	0.2835853751794913	0.5089543709694557	0.7773419330028346
95	1.6101694915254237	0.41830432666160244	0.596960310139336	0.6175008261894083	0.3908031713557335	0.7717814497022181	1.0935529196632874	0.3717259532170299	0.8864355206904857	1.5176786341878585	0.29607823626489055	0.6786775212129891	1.5444450014074773	0.3639165708191762	0.6905443784847446	1.5500994920956783	0.3576710350967374	0.984287276575257	1.571121208882159	0.22150973585687536	0.6056612352495009	0.629217939278563	0.21577331549187886	0.720624258227128	1.0684562811916782	0.1802471062343294	0.8733097174623101	1.496769903401176	0.17983742996573474	0.6963075979021554	1.5326140142367841	0.12065584961971978	0.743209363658658	1.539444229828703	0.18585440408076773	0.9521747593939237	1.5713012588780915	0.29067829387984084	0.4057458515678911	0.1276582780148652	0.2503225492067423	0.2747600127167611	-0.11843366768767233	0.25630504529973275	0.2132926460348767	0.04250996088316337	0.45774446624316	0.4106579439845823	0.18716833470363492	0.4849812606490979	0.4797755597036503	0.4498847655929919	0.36805885165911356	0.4886715985616421	0.6787367388910047	0.28285683751988644	0.440345735461263	0.7575168059116799	0.2933570282474272	0.4550279203178621	0.787459303862531	0.3173710355169028	0.5181370990483767	0.8052832940502916	0.14501365904226426	0.4887056437651486	0.1938795445902343	0.145805387287037	0.5605104380360199	0.4394905296105759	0.2518436539513297	0.4724630722414231	0.6594719631133557	0.2988059619068799	0.4038093125213022	0.7289151817833337	0.3079755146894269	0.4134235612467736	0.7628951551820624	0.28245587262383787	0.509590833434643	0.7817267268702938
96	1.6271186440677967	0.41985154632581445	0.5975107892491947	0.6146675232953817	0.38553809311073006	0.7707151990691867	1.0970697177513362	0.37554076534397374	0.8677716200846415	1.515296032931196	0.2960747717883189	0.6786416519563634	1.54436727874954	0.3643223302715644	0.7203037151935792	1.5616151328779626	0.35776045239234894	0.9840866713049877	1.571000884934102	0.22232778819616678	0.604329032652463	0.6291935345426675	0.21677919599226186	0.7190560376209881	1.0643650537956673	0.18355019328066335	0.8881878296530433	1.5019057237929418	0.17987468221371064	0.6965346873995971	1.5325827892849435	0.11986017509018654	0.7406297362975278	1.5341581277823897	0.18937986104099042	0.9671581591565667	1.577019881880902	0.29070577950630416	0.4055105108825967	0.12787450369084344	0.23982561743575864	0.2631550056035199	-0.11625794029807754	0.2526745393692622	0.2238750722878126	0.04491639198959821	0.45765504606613633	0.41063446424086614	0.18406957827791132	0.48150211183211444	0.47048932867366644	0.45313327056159863	0.36742124372346807	0.48957090129188274	0.6825275344844418	0.2727353646850844	0.4939888453490926	0.769642130617971	0.2818797107806572	0.494673242751887	0.7861740624988074	0.31692811934346843	0.5207969510066232	0.8042145347536652	0.14479096206559003	0.48819928600142015	0.19391434908656452	0.14573089901316919	0.5608380813991236	0.43969110021315433	0.24809333352635204	0.4861566130985724	0.661081974817646	0.298542118419521	0.42925317392592294	0.7315150264270879	0.30432656307765754	0.43718589772892136	0.7632409047048159	0.28617298902948174	0.5124038519130987	0.7841317130885115
97	1.6440677966101696	0.4203692049557099	0.5967644244462551	0.6109981516940051	0.3853763374842811	0.7710115901925534	1.097417397671486	0.37551421712031724	0.8674824230259106	1.5152256461860922	0.296105039383007	0.6785450533749342	1.5443545808994648	0.367883296543028	0.7034527286687068	1.555030639270492	0.3578793651909816	0.9838539593060306	1.570917782382655	0.22237789131412802	0.6045328066640275	0.6292101881426109	0.21682451545814982	0.7191389854645559	1.064358473796863	0.18425454151201964	0.8911083005507203	1.5070784630292913	0.1797605126061436	0.6964649271992754	1.5325793901504372	0.1203983771068526	0.7434275718189245	1.5393093937339817	0.19061662940109567	0.9653007666318307	1.5712402856818068	0.283527062654915	0.41675140766589447	0.12720472854616713	0.23944875892898498	0.2642517574689894	-0.1096088077114712	0.24877298605257261	0.23596507785837179	0.05329575675461363	0.45798873055227857	0.41201963406654074	0.19093263045870032	0.48170070846963436	0.47007069110202077	0.45739300428244206	0.36797528949214214	0.48910267853520956	0.6787229428436202	0.2730584184597235	0.4937886753325226	0.7696064130549433	0.2853489406667893	0.49415142365745407	0.7887993633944468	0.313273444688794	0.5356857562539596	0.8054680622934437	0.14090890955417978	0.4873755207397046	0.1938788331506062	0.14573400423523716	0.5611723790610847	0.4399116666642056	0.2479172360872332	0.48918691727698344	0.6686557336852051	0.2946306759613317	0.443440634260904	0.7335215334380705	0.30485703185416607	0.4538823405840257	0.7729872975553451	0.28653729213030343	0.5125741748907826	0.7843035560267693
98	1.6610169491525424	0.41993609914146346	0.5971012957346432	0.6181857286609743	0.3862850460804315	0.768975329226661	1.0920982407115387	0.3754317460053055	0.8682538948385583	1.5113825786059967	0.2925886127670971	0.6658289113744745	1.5392504183840645	0.36400589658312565	0.6898788254525802	1.5497723901396787	0.36227410193293247	0.9649261550130933	1.564193674010189	0.222344887343672	0.6046816804930768	0.6292054403162346	0.21689833357600127	0.7192279815338872	1.064282345589111	0.18441970967016968	0.8913960509966516	1.5072035809231592	0.17663938249569033	0.6830939844157412	1.5272095787596156	0.11969156681425468	0.741927377570835	1.5300777912037553	0.19101733871624774	0.9666735155763763	1.5717208171451094	0.28368605582623896	0.4166897558908708	0.13079233364585038	0.23522440754519755	0.25318498992928956	-0.10475672612656238	0.24154746018170137	0.2460925795321566	0.05549520832226647	0.4538321766393589	0.4094014050463512	0.1874781793759547	0.4814335594658177	0.46974531963175425	0.45746160979708833	0.36731964162449	0.4898198826655086	0.6825727759114044	0.2642112679519131	0.5038555850591465	0.7660868246291604	0.277759671523832	0.5068703356975752	0.7909135764534843	0.31664432114003743	0.5492619293820129	0.8117051676189392	0.14495865048155637	0.49110777008684764	0.2009394473052028	0.14561040542416395	0.5618706056402126	0.44008402138399955	0.2441728747121421	0.502809282249775	0.6701395638436053	0.28670064979365606	0.4554844987230645	0.7350667722839945	0.29573127503521246	0.46531989779818544	0.7744797153712167	0.2832185645805198	0.5134073950754162	0.783866588159253
99	1.6779661016949152	0.42034651336583484	0.5971574806978369	0.6109348915339606	0.3856575507587285	0.7663169044910334	1.0873692980886898	0.37563085751264397	0.8672310622950088	1.5152286073669994	0.29551165364113924	0.6759192815789925	1.5396224821365525	0.36405818709184606	0.6899542189074764	1.5498036376683748	0.3622300995703364	0.9650616225716602	1.5642884763711709	0.2269992011919053	0.605348296392239	0.6216439707989335	0.2169850960083595	0.7192918747968854	1.0642686389970393	0.1844588501951887	0.8916730255813057	1.507356423498174	0.17664384598087912	0.6830419741953493	1.5271909007845317	0.11977218738526409	0.7419625812629342	1.530095379400766	0.18984143597510425	0.9693651106338557	1.578007978433181	0.2761844582945316	0.40500614291050063	0.1352030939978999	0.23465905116194347	0.2531347745719568	-0.10174620421956512	0.23449117282974472	0.23519254190796351	0.05966218989888504	0.45350996448792935	0.40976857520996135	0.19120386089995045	0.4809904666044872	0.4702553733967426	0.46070336923995137	0.3672257077029499	0.48998181070799013	0.6826514302456512	0.2638315565592465	0.5044407165723099	0.7664682995677922	0.2770762423016501	0.5068245851364919	0.7945904132454304	0.31660028307280863	0.5485481707045485	0.8118495197805846	0.14088473276245939	0.4898650166258749	0.2043754627809704	0.14547714893480762	0.5614688528398747	0.4400502396279294	0.24740481999262276	0.4874475510553272	0.6647910819768054	0.2865926267980686	0.43907659397735394	0.7332449062630566	0.291967784823179	0.4643670874149775	0.7710540658110842	0.28349009000214054	0.5143407082273226	0.7835436170037313
100	1.694915254237288	0.4198426975038831	0.5979582741025965	0.6146015229421393	0.38126323714743193	0.7525365379995453	1.0842355462131803	0.37566289883969317	0.867024569144875	1.515179129268647	0.29635150428482215	0.6786115308628192	1.544273469060411	0.3640390359767019	0.6898789596804001	1.5497778746448634	0.3623241266888465	0.9647207982656906	1.5642074773532952	0.2264840389743521	0.6071960444470126	0.6214623554608106	0.22198856131536307	0.7032577619381243	1.0569349218347297	0.18436706937028918	0.8916740242627262	1.5072338551300615	0.17982300728826844	0.6965341788377056	1.5325358936988003	0.1196820638184395	0.7423207211832131	1.5302275565398038	0.1909715450955884	0.9667483774739416	1.5717534054592281	0.27615385140201115	0.4049976633371303	0.13543437235066566	0.23145600915278108	0.25278366074195396	-0.0989191087562673	0.22703473549761324	0.24533814153363195	0.05862988771591698	0.453751004130903	0.4111102947568433	0.19801472154034136	0.48139845093712497	0.4721163167067345	0.4644100926953367	0.3672235491251261	0.4900058033633829	0.6827682582707316	0.2626808649843616	0.4816449818735865	0.7658463485908695	0.2732579894499089	0.5071408220092726	0.7953530599283205	0.316911711805527	0.5479792059525135	0.8125754049189349	0.14088160508995903	0.4900475678638534	0.2044829914705119	0.14519065762678457	0.5627802330299605	0.44380819768107654	0.2478660409097584	0.4894132527041588	0.6687099377981643	0.27817434140557346	0.4262057748020734	0.7353884201928057	0.28876183606939254	0.44030776215881334	0.7713250525804779	0.2834916289370396	0.5143948186337979	0.7835452717748322
